<?xml version="1.0" ?>
<!-- Uploaded to: SVG Repo, www.svgrepo.com, Generator: SVG Repo Mixer Tools -->
<svg width="800px" height="800px" viewBox="0 0 512 512" id="Layer_1" version="1.1" xml:space="preserve" xmlns="http://www.w3.org/2000/svg" xmlns:xlink="http://www.w3.org/1999/xlink">
<style type="text/css">
	.st0{fill:#2B79C2;}
	.st1{fill:#3B4652;}
	.st2{fill:#333333;}
</style>
<g>
<path class="st1" d="M387.1,117.8c-0.4-0.4-1-0.4-1.5-0.1L341,143.4c-0.8,0.5-0.9,1.6-0.1,2.2c41,27.4,68,74.2,68,127.3   c0,83.8-67.4,151.9-151,153c-85.1,1.1-155.7-69.1-155-154.3c0.6-76.4,57.2-139.4,130.8-150.1c7.3-1,14.7-1.6,22.2-1.6   c2.9,0,5.7,0.1,8.6,0.2c0.7,0,1.2,0.6,1.2,1.3v26.3c0,1,1.1,1.6,1.9,1.1l36.7-21.2l53.1-30.7l5.6-3.2c0.9-0.5,0.9-1.7,0-2.2   l-95.4-55.1c-0.9-0.5-1.9,0.1-1.9,1.1v31.2c0,0.7-0.6,1.3-1.3,1.3c-2.8-0.1-5.6-0.2-8.4-0.2c-7.5,0-14.9,0.4-22.2,1.2   C119.4,83.4,33.5,191,56.8,312.9c15.2,79.6,77.3,142.5,156.7,158.6C344.2,497.9,459,398.8,459,272.8   C459,210.6,431.1,155,387.1,117.8z"/>
<path class="st0" d="M358.4,312.4v-79.2c0-2.6-2.1-4.8-4.8-4.8H158.3c-2.6,0-4.8,2.1-4.8,4.8v79.2c0,2.6,2.1,4.8,4.8,4.8h195.3   C356.3,317.1,358.4,315,358.4,312.4z M209.4,280.8h-6.7v6.7c0,4.4-3.6,8-8,8s-8-3.6-8-8v-6.7h-6.7c-4.4,0-8-3.6-8-8s3.6-8,8-8h6.7   v-6.7c0-4.4,3.6-8,8-8s8,3.6,8,8v6.7h6.7c4.4,0,8,3.6,8,8S213.8,280.8,209.4,280.8z M270.7,280.8H264v6.7c0,4.4-3.6,8-8,8   s-8-3.6-8-8v-6.7h-6.7c-4.4,0-8-3.6-8-8s3.6-8,8-8h6.7v-6.7c0-4.4,3.6-8,8-8s8,3.6,8,8v6.7h6.7c4.4,0,8,3.6,8,8   S275.1,280.8,270.7,280.8z M331.9,280.8h-6.7v6.7c0,4.4-3.6,8-8,8s-8-3.6-8-8v-6.7h-6.7c-4.4,0-8-3.6-8-8s3.6-8,8-8h6.7v-6.7   c0-4.4,3.6-8,8-8s8,3.6,8,8v6.7h6.7c4.4,0,8,3.6,8,8S336.3,280.8,331.9,280.8z"/>
<path class="st0" d="M229,347.8c-4.4,0-8,3.6-8,8s3.6,8,8,8h54c4.4,0,8-3.6,8-8s-3.6-8-8-8H229z"/>
</g>
</svg>